M48
;Layer_Color=9474304
;FILE_FORMAT=2:5
INCH,LZ
;TYPE=PLATED
T1F00S00C0.00799
T2F00S00C0.00800
T3F00S00C0.01000
T4F00S00C0.01201
T5F00S00C0.04016
T6F00S00C0.07874
;TYPE=NON_PLATED
T7F00S00C0.09449
%
T01
X0408835Y0351969
X0411835Y0353468
T02
X0308296Y0359635
X0323727Y036076
X0324957Y0349
X0334727Y035576
X0344217Y0348862
X0348457Y03395
Y0334
X0359508Y0340905
X0366831Y0335984
X0373012Y0335965
X0373031Y0330157
X0375571Y0330295
X0370276Y0329803
X0376261Y0321862
X0386261Y0326862
X0387261Y0314862
X038849Y0340979
X0397067Y034061
X0404095Y0346331
X0410095Y0342331
X0375453Y0340866
X0376378Y0354626
X0379429Y0354528
X0378543Y0360433
X0381594Y0360335
X0384055Y0360138
X0386516Y0360236
X03915Y0364347
X0390059Y0377461
X0386823Y0387951
X0373228Y0391043
X0369587Y0392815
X0368209Y038628
X036565Y0387303
X0362894Y0390059
X0362953Y0383563
X0362736Y0380787
X0363602Y0378484
X0363701Y0374941
X0363681Y0372539
X0362992Y0370236
X0363543Y0362972
X0368701Y0360433
X0374311
X036998Y0354134
X0367323Y0354823
X0346261Y0367362
X0346761Y0372362
X0346261Y0377362
X0354657Y0392846
X0317146Y0378012
X0316261Y0374362
Y0369362
X0335717Y0322362
T03
X0372169Y0369016
X0380831
Y0377677
X0372169
T04
X032625Y03075
X03375Y03
X03525
X036
X036375Y03075
X035625
X039Y03
X031125Y03225
X03075Y033
Y0345
X031125Y03525
Y03675
X030375
X03Y036
X0315
X033
X033375Y03525
X034125
X036375Y03375
X035625Y03225
X036Y0315
X03525
X03225
X0315
Y033
X031875Y03375
X0315Y039
X031875Y03975
X033375
X03525Y039
X034875Y03825
X036Y0405
X03675
X0375
X037125Y03975
X038625
X039Y039
X03825
X04125
X041625Y03825
X042Y0375
X041625Y03675
X042375Y03525
X042Y0345
X041625Y03375
X040875
X04125Y033
T05
X03935Y04075
T06
X03715Y0303
X03815
T07
X03272Y0401026
M30
